<svg width="90" height="86" viewBox="0 0 90 86" fill="none" xmlns="http://www.w3.org/2000/svg">
<path d="M65.3682 21.8563L74.79 44.6034L65.3682 67.3504L42.6211 76.7723L19.874 67.3504L10.4521 44.6034L19.874 21.8563L42.6211 12.4344L65.3682 21.8563Z" stroke="#4575C8"/>
<path d="M44.9726 11.1227C44.1959 11.8005 44.1157 12.9797 44.7935 13.7565C45.4713 14.5333 46.6505 14.6135 47.4273 13.9356C48.204 13.2578 48.2842 12.0786 47.6064 11.3019C46.9286 10.5251 45.7494 10.4449 44.9726 11.1227ZM17.2191 72.577C16.4423 73.2548 16.3621 74.434 17.0399 75.2108C17.7178 75.9875 18.897 76.0677 19.6737 75.3899C20.4505 74.7121 20.5307 73.5329 19.8529 72.7561C19.175 71.9794 17.9959 71.8992 17.2191 72.577ZM46.2 12.5292L45.881 12.3851L18.1274 73.8394L18.4464 73.9835L18.7654 74.1275L46.5189 12.6732L46.2 12.5292Z" fill="#4575C8"/>
<path d="M44.9726 11.1227C44.1959 11.8005 44.1157 12.9797 44.7935 13.7565C45.4713 14.5333 46.6505 14.6135 47.4273 13.9356C48.204 13.2578 48.2842 12.0786 47.6064 11.3019C46.9286 10.5251 45.7494 10.4449 44.9726 11.1227ZM72.8269 53.0008C72.0501 53.6786 71.9699 54.8578 72.6477 55.6345C73.3255 56.4113 74.5047 56.4915 75.2815 55.8137C76.0583 55.1359 76.1385 53.9567 75.4607 53.1799C74.7828 52.4031 73.6036 52.3229 72.8269 53.0008ZM46.2 12.5292L45.9085 12.723L73.7628 54.6011L74.0542 54.4072L74.3456 54.2134L46.4914 12.3353L46.2 12.5292Z" fill="#4575C8"/>
<path d="M7.84056 49.9781C8.61733 49.3003 9.79651 49.3805 10.4743 50.1573C11.1522 50.934 11.072 52.1132 10.2952 52.791C9.51842 53.4689 8.33923 53.3887 7.66141 52.6119C6.98358 51.8351 7.06379 50.6559 7.84056 49.9781ZM72.8269 53.0007C73.6037 52.3229 74.7829 52.4031 75.4607 53.1799C76.1385 53.9567 76.0583 55.1358 75.2816 55.8137C74.5048 56.4915 73.3256 56.4113 72.6478 55.6345C71.97 54.8577 72.0502 53.6786 72.8269 53.0007ZM9.06787 51.3846L9.08413 51.035L74.0705 54.0576L74.0542 54.4072L74.038 54.7568L9.05161 51.7342L9.06787 51.3846Z" fill="#4575C8"/>
<path d="M11.272 34.9114C12.0487 34.2336 13.2279 34.3138 13.9057 35.0906C14.5836 35.8673 14.5034 37.0465 13.7266 37.7243C12.9498 38.4022 11.7706 38.322 11.0928 37.5452C10.415 36.7684 10.4952 35.5892 11.272 34.9114ZM62.2477 69.6251C63.0245 68.9473 64.2037 69.0275 64.8815 69.8043C65.5593 70.5811 65.4791 71.7602 64.7023 72.4381C63.9256 73.1159 62.7464 73.0357 62.0686 72.2589C61.3907 71.4821 61.4709 70.303 62.2477 69.6251ZM12.4993 36.3179L12.6963 36.0286L63.672 70.7423L63.475 71.0316L63.278 71.3209L12.3023 36.6072L12.4993 36.3179Z" fill="#4575C8"/>
<path d="M11.2729 34.9114C12.0497 34.2336 13.2289 34.3138 13.9067 35.0906C14.5845 35.8673 14.5043 37.0465 13.7276 37.7243C12.9508 38.4022 11.7716 38.322 11.0938 37.5452C10.416 36.7684 10.4962 35.5892 11.2729 34.9114ZM70.7449 19.0522C71.5216 18.3744 72.7008 18.4546 73.3787 19.2314C74.0565 20.0082 73.9763 21.1873 73.1995 21.8652C72.4227 22.543 71.2436 22.4628 70.5657 21.686C69.8879 20.9092 69.9681 19.7301 70.7449 19.0522ZM12.5002 36.3179L12.4101 35.9797L71.882 20.1205L71.9722 20.4587L72.0624 20.7969L12.5904 36.6561L12.5002 36.3179Z" fill="#4575C8"/>
<path d="M49.5891 78.4833C50.3659 77.8055 50.4461 76.6263 49.7683 75.8496C49.0905 75.0728 47.9113 74.9926 47.1345 75.6704C46.3577 76.3482 46.2775 77.5274 46.9554 78.3042C47.6332 79.081 48.8124 79.1612 49.5891 78.4833ZM73.1994 21.8652C73.9762 21.1874 74.0564 20.0082 73.3786 19.2314C72.7008 18.4546 71.5216 18.3744 70.7448 19.0523C69.968 19.7301 69.8878 20.9093 70.5657 21.686C71.2435 22.4628 72.4227 22.543 73.1994 21.8652ZM48.3618 77.0769L48.6849 77.2116L72.2952 20.5934L71.9721 20.4587L71.6491 20.324L48.0388 76.9422L48.3618 77.0769Z" fill="#4575C8"/>
<path d="M62.7228 11.7311C62.9218 11.3397 63.5062 11.436 63.5692 11.8707L65.5622 25.6389C65.6106 25.9726 65.8318 26.2561 66.1442 26.3831L78.8697 31.5519C79.2759 31.7169 79.2308 32.3058 78.8042 32.4064L66.5125 35.2967C66.1062 35.3922 65.8096 35.7418 65.7817 36.1582L64.8942 49.4791C64.8652 49.914 64.2967 50.0581 64.0645 49.6894L57.4458 39.1649C57.2127 38.7942 56.7563 38.6312 56.341 38.7697L44.4034 42.7494C43.9939 42.886 43.6458 42.4236 43.8902 42.0679L51.0232 31.6939C51.255 31.3565 51.2444 30.9085 50.9971 30.5822L43.1579 20.2478C42.8944 19.9005 43.2296 19.4187 43.6469 19.5448L55.9861 23.2747C56.4266 23.4077 56.8988 23.2056 57.1073 22.7954L62.7228 11.7311Z" fill="url(#paint0_linear_68_12036)" stroke="#4575C8" stroke-width="0.5"/>
<path d="M24.5164 39.0548C24.6715 38.6624 25.2326 38.68 25.3627 39.0813L28.8693 49.9259C28.9667 50.2272 29.2087 50.4597 29.5131 50.5467L40.7641 53.7611C41.1652 53.8761 41.2075 54.4279 40.8283 54.6024L30.171 59.4972C29.9014 59.6211 29.7049 59.8641 29.6403 60.1537L27.1663 71.2512C27.0752 71.6582 26.5275 71.7329 26.3308 71.3649L20.6285 60.7016C20.5288 60.5152 20.3696 60.3676 20.1763 60.2817L9.68773 55.6232C9.31765 55.4589 9.33555 54.927 9.71607 54.7886L19.3464 51.2846C19.602 51.1916 19.8054 50.9935 19.9053 50.7405L24.5164 39.0548Z" fill="url(#paint1_linear_68_12036)" stroke="#4575C8" stroke-width="0.5"/>
<path d="M23.6017 12.8684C23.6234 12.6197 23.9556 12.5534 24.0716 12.7744L25.7189 15.9093C25.9019 16.2574 26.3226 16.4055 26.683 16.248L30.5427 14.5581C30.771 14.4581 30.9892 14.717 30.8519 14.9247L29.0101 17.6993C28.7528 18.0868 28.9067 18.6129 29.3322 18.8006L32.9596 20.4013C33.1897 20.5028 33.1427 20.8419 32.8937 20.8771L28.8596 21.4478C28.4588 21.5045 28.1754 21.8686 28.2191 22.271L28.6584 26.3217C28.6855 26.5717 28.3674 26.701 28.2124 26.503L25.6544 23.2333C25.4352 22.9533 25.0488 22.8659 24.7302 23.0239L21.2707 24.7388C21.0537 24.8459 20.8261 24.6127 20.9384 24.3984L22.4449 21.5302C22.6469 21.1458 22.4807 20.6708 22.0834 20.4955L18.4031 18.871C18.173 18.7695 18.22 18.4304 18.469 18.3952L22.589 17.8128C22.9347 17.7638 23.2003 17.4824 23.2305 17.1346L23.6017 12.8684Z" fill="url(#paint2_linear_68_12036)" stroke="#4575C8" stroke-width="0.5"/>
<defs>
<linearGradient id="paint0_linear_68_12036" x1="65.8776" y1="10.3659" x2="54.3703" y2="48.434" gradientUnits="userSpaceOnUse">
<stop stop-color="#89B4FF"/>
<stop offset="0.5" stop-color="#4575C8"/>
<stop offset="1" stop-color="#080808"/>
</linearGradient>
<linearGradient id="paint1_linear_68_12036" x1="23.9997" y1="37.2236" x2="26.7436" y2="73.1668" gradientUnits="userSpaceOnUse">
<stop stop-color="#89B4FF"/>
<stop offset="0.5" stop-color="#4575C8"/>
<stop offset="1" stop-color="#080808"/>
</linearGradient>
<linearGradient id="paint2_linear_68_12036" x1="22.5295" y1="11.5417" x2="29.2139" y2="27.9885" gradientUnits="userSpaceOnUse">
<stop stop-color="#89B4FF"/>
<stop offset="0.5" stop-color="#4575C8"/>
<stop offset="1" stop-color="#080808"/>
</linearGradient>
</defs>
</svg>
