<svg width="48" height="45" viewBox="0 0 48 45" fill="none" xmlns="http://www.w3.org/2000/svg">
<path d="M23.0698 2.35663C23.4029 1.51281 24.5971 1.51281 24.9302 2.35663L30.3136 15.9958C30.4206 16.267 30.6406 16.4779 30.916 16.5735L45.2766 21.5552C46.1729 21.8662 46.1729 23.1338 45.2766 23.4448L30.916 28.4265C30.6406 28.5221 30.4206 28.733 30.3136 29.0042L24.9302 42.6434C24.5971 43.4872 23.4029 43.4872 23.0698 42.6434L17.6864 29.0042C17.5794 28.733 17.3594 28.5221 17.084 28.4265L2.7234 23.4448C1.82706 23.1338 1.82707 21.8662 2.7234 21.5552L17.084 16.5735C17.3594 16.4779 17.5794 16.267 17.6864 15.9958L23.0698 2.35663Z" fill="#4575C8"/>
</svg>
